<svg width="1440" height="800" viewBox="0 0 1440 800" fill="none" xmlns="http://www.w3.org/2000/svg">
<g clip-path="url(#clip0_2170_146)">
<path fill-rule="evenodd" clip-rule="evenodd" d="M1437.86 2.6408C1543.38 -47.4563 1668.74 -72.7333 1766.41 -39.8352C1856.72 -9.4172 1862.85 97.7201 1919.21 164.765C1964.51 218.666 2042.84 246.506 2063.54 313.641C2086.46 388.018 2080.24 473.708 2038.6 552.135C1994.99 634.274 1925.42 720.531 1830.54 752.466C1738.57 783.419 1665.74 708.695 1573.33 708.726C1472.22 708.76 1345.78 803.975 1272.68 752.653C1201.07 702.376 1285.68 580.961 1271.16 496.579C1255.08 403.108 1150.88 334.577 1183.91 236.72C1218.12 135.339 1329.36 54.1565 1437.86 2.6408Z" stroke="#1A365D"/>
</g>
<defs>
<clipPath id="clip0_2170_146">
<rect width="1440" height="800" fill="white"/>
</clipPath>
</defs>
</svg>
