<svg width="1440" height="800" viewBox="0 0 1440 800" fill="none" xmlns="http://www.w3.org/2000/svg">
<g clip-path="url(#clip0_2170_156)">
<path fill-rule="evenodd" clip-rule="evenodd" d="M138.819 624.115C72.0053 647.779 21.854 735.185 -46.9937 718.332C-111.671 702.5 -136.243 617.758 -151.719 552.995C-164.992 497.456 -130.708 444.036 -126.145 387.115C-121.935 334.595 -145.662 281.136 -126.006 232.251C-104.283 178.224 -65.7103 127.671 -12.4046 104.234C41.0572 80.7285 100.992 102.479 159.23 106.84C224.095 111.696 315.22 75.6048 348.846 131.284C386.819 194.16 287.902 269.6 301.158 341.847C312.605 404.232 418.962 426.488 414.623 489.765C410.613 548.236 336.053 575.66 283.364 601.326C238.607 623.128 185.747 607.494 138.819 624.115Z" stroke="black"/>
<path fill-rule="evenodd" clip-rule="evenodd" d="M1671.9 352.723C1727.23 397.031 1827.94 393.583 1849.91 460.974C1870.54 524.283 1811.47 589.829 1764.59 637.115C1724.39 677.667 1660.92 676.688 1610.14 702.81C1563.29 726.913 1530.37 775.253 1478.46 784.314C1421.1 794.328 1357.81 788.192 1309.8 755.244C1261.64 722.199 1248.54 659.801 1221.55 608.01C1191.49 550.327 1112.79 491.908 1142.38 433.985C1175.8 368.576 1292.05 412.877 1346.46 363.534C1393.44 320.926 1356.3 218.81 1412.36 189.147C1464.17 161.737 1526.77 210.646 1576.35 241.896C1618.47 268.441 1633.04 321.602 1671.9 352.723Z" stroke="black"/>
</g>
<defs>
<clipPath id="clip0_2170_156">
<rect width="1440" height="800" fill="white"/>
</clipPath>
</defs>
</svg>
